<svg width="250.000000" height="71.000000" viewBox="0 0 250 71" fill="none" xmlns="http://www.w3.org/2000/svg" xmlns:xlink="http://www.w3.org/1999/xlink">
	<desc>
			Created with Pixso.
	</desc>
	<defs>
		<clipPath id="clip753_455">
			<rect id="logo (4) 1" rx="0.000000" width="249.000000" height="70.000000" transform="translate(0.500000 0.500000)" fill="white" fill-opacity="0"/>
		</clipPath>
	</defs>
	<rect id="logo (4) 1" rx="0.000000" width="249.000000" height="70.000000" transform="translate(0.500000 0.500000)" fill="#FFFFFF" fill-opacity="0"/>
	<g clip-path="url(#clip753_455)">
		<path id="Vector" d="" fill="#2D2D2D" fill-opacity="1.000000" fill-rule="nonzero"/>
		<path id="Vector" d="M56.68 53.8L60.69 28.79C60.82 28 61.2 27.35 61.85 27.09L61.98 26.57C62.11 25.92 61.98 25.4 61.72 25.14C61.46 24.88 61.07 24.62 60.56 24.62C59.4 24.62 58.75 25.27 58.49 26.44L54.49 51.98C54.36 52.63 54.49 53.15 54.75 53.41C55.01 53.67 55.39 53.93 55.91 53.93C56.17 53.93 56.43 53.93 56.68 53.8Z" fill="#2D2D2D" fill-opacity="1.000000" fill-rule="nonzero"/>
		<path id="Vector" d="" fill="#2D2D2D" fill-opacity="1.000000" fill-rule="nonzero"/>
		<path id="Vector" d="M70.76 23.84L68.69 21.75C69.86 23.18 70.37 25.14 69.98 27.74L66.24 51.32C65.21 57.06 61.46 59.4 55.13 59.4C52.04 59.4 49.71 58.75 48.16 57.32L50.36 59.53C51.91 60.96 54.36 61.62 57.46 61.62C63.79 61.62 67.66 59.27 68.56 53.54L72.31 29.57C72.57 27.09 72.05 25.14 70.76 23.84Z" fill="#2D2D2D" fill-opacity="1.000000" fill-rule="nonzero"/>
		<path id="Vector" d="M169.93 10.03L162.31 59.01L153.79 59.01L156.12 61.35L164.51 61.35L172.26 12.24L169.93 10.03Z" fill="#2D2D2D" fill-opacity="1.000000" fill-rule="nonzero"/>
		<path id="Vector" d="M90.39 29.05L89.48 28.92C87.16 28.53 84.32 28.66 83.8 32.04L79.15 61.35L70.76 61.35L68.44 59.01L76.83 59.01L81.48 29.7C82.12 25.66 85.87 26.18 88.45 26.83L89.61 19.41L89.61 19.15L90.77 20.32L91.55 21.1L90.39 29.05Z" fill="#2D2D2D" fill-opacity="1.000000" fill-rule="nonzero"/>
		<path id="Vector" d="M101.88 10.03L94.13 59.01L85.74 59.01L87.93 61.35L96.46 61.35L104.08 12.24L101.88 10.03Z" fill="#2D2D2D" fill-opacity="1.000000" fill-rule="nonzero"/>
		<path id="Vector" d="M114.54 26.57C114.66 25.92 114.54 25.4 114.28 25.14C114.02 24.88 113.63 24.75 113.12 24.75C111.95 24.75 111.31 25.4 111.05 26.57L107.05 52.1C106.92 52.76 107.05 53.28 107.3 53.54C107.56 53.8 107.95 54.06 108.47 54.06C108.85 54.06 109.11 54.06 109.37 53.93L113.37 28.92C113.5 28.13 113.89 27.48 114.54 27.22L114.54 26.57Z" fill="#2D2D2D" fill-opacity="1.000000" fill-rule="nonzero"/>
		<path id="Vector" d="M125.38 10.03L117.63 59.01L112.6 59.01L111.18 56.53C109.63 58.36 107.56 59.4 104.72 59.4C102.66 59.4 100.98 58.88 99.94 57.97L102.01 60.05C103.04 61.09 104.72 61.62 106.92 61.62C109.5 61.62 111.44 60.83 112.86 59.27L113.63 60.05L114.79 61.22L119.83 61.22L127.58 12.24L125.38 10.03Z" fill="#2D2D2D" fill-opacity="1.000000" fill-rule="nonzero"/>
		<path id="Vector" d="M51.78 9.9L36.93 58.88L28.02 58.88L30.34 61.09L39.12 61.09L54.1 12.11L51.78 9.9Z" fill="#2D2D2D" fill-opacity="1.000000" fill-rule="nonzero"/>
		<path id="Vector" d="M199.63 45.2L198.6 52.11C198.47 52.76 198.6 53.28 198.86 53.54C199.12 53.8 199.5 54.06 200.02 54.06C200.41 54.06 200.67 54.06 200.93 53.93L201.96 47.55L199.63 45.2Z" fill="#2D2D2D" fill-opacity="1.000000" fill-rule="nonzero"/>
		<path id="Vector" d="M215.26 23.97L213.06 21.75C214.36 23.31 214.74 25.4 214.23 27.87L213.45 32.43L205.32 32.43L207.64 34.65L215.78 34.65L216.42 30.87L216.68 28.66C216.81 26.7 216.42 25.14 215.26 23.97Z" fill="#2D2D2D" fill-opacity="1.000000" fill-rule="nonzero"/>
		<path id="Vector" d="M206.22 27.09C205.57 27.35 205.19 28 205.06 28.79L204.41 33.08C204.28 33.87 204.28 34.39 204.67 34.91L203.38 33.74C202.35 32.95 201.96 32.04 202.22 30.74L202.86 26.44C203.12 25.27 203.77 24.62 204.93 24.62C205.44 24.62 205.83 24.75 206.09 25.14C206.35 25.53 206.48 25.92 206.35 26.57L206.22 27.09Z" fill="#2D2D2D" fill-opacity="1.000000" fill-rule="nonzero"/>
		<path id="Vector" d="M209.32 39.21C211.38 41.42 211.77 44.55 211.26 47.81L210.61 51.32C209.58 57.06 206.09 59.4 199.25 59.4C196.15 59.4 193.82 58.62 192.27 57.19L194.47 59.4C196.02 60.96 198.47 61.62 201.44 61.62C208.29 61.62 211.77 59.27 212.81 53.54L213.58 48.2C213.71 45.59 213.19 43.25 211.38 41.42L209.32 39.21Z" fill="#2D2D2D" fill-opacity="1.000000" fill-rule="nonzero"/>
		<path id="Vector" d="M224.3 53.8C224.04 53.93 223.78 53.93 223.39 53.93C222.88 53.93 222.49 53.8 222.23 53.41C221.97 53.02 221.84 52.63 221.97 51.98L223.01 45.07L225.2 47.29L224.3 53.8Z" fill="#2D2D2D" fill-opacity="1.000000" fill-rule="nonzero"/>
		<path id="Vector" d="M232.69 39.21C234.76 41.42 235.15 44.55 234.63 47.81L233.98 51.32C232.95 57.06 229.46 59.4 222.62 59.4C219.52 59.4 217.2 58.62 215.65 57.19L217.97 59.4C219.52 60.96 221.97 61.62 224.94 61.62C231.79 61.62 235.27 59.27 236.31 53.54L237.08 48.2C237.21 45.59 236.69 43.25 234.89 41.42L232.69 39.21Z" fill="#2D2D2D" fill-opacity="1.000000" fill-rule="nonzero"/>
		<path id="Vector" d="M226.75 33.87L228.04 35.04C227.78 34.52 227.78 33.87 227.91 33.21L228.56 28.92C228.69 28.13 229.08 27.48 229.72 27.22L229.85 26.7C229.98 26.05 229.85 25.53 229.59 25.27C229.33 25.01 228.95 24.75 228.43 24.75C227.27 24.75 226.62 25.4 226.36 26.57L225.72 30.87C225.46 32.17 225.72 33.08 226.75 33.87Z" fill="#2D2D2D" fill-opacity="1.000000" fill-rule="nonzero"/>
		<path id="Vector" d="M238.76 23.97L236.57 21.75C237.86 23.31 238.24 25.4 237.73 27.87L236.95 32.43L228.69 32.43L231.01 34.65L239.15 34.65L239.79 30.87L240.18 28.66C240.31 26.7 239.92 25.14 238.76 23.97Z" fill="#2D2D2D" fill-opacity="1.000000" fill-rule="nonzero"/>
		<path id="Vector" d="M191.76 24.1L189.56 21.88C190.72 23.18 191.24 25.14 190.85 27.61L185.95 59.01L180.78 59.01L179.36 56.53C177.81 58.36 175.87 59.4 172.9 59.4C170.84 59.4 169.16 58.88 168.13 57.97L170.19 60.05C171.22 61.22 172.9 61.75 175.23 61.75C177.81 61.75 179.75 60.96 181.17 59.4L183.1 61.35L188.14 61.35L189.69 51.45L192.92 30.74L193.18 29.05C193.31 26.83 192.79 25.27 191.76 24.1Z" fill="#2D2D2D" fill-opacity="1.000000" fill-rule="nonzero"/>
		<path id="Vector" d="M179.75 44.94C178.97 45.59 178.59 46.37 178.46 47.41L177.42 53.8C177.16 53.93 176.91 53.93 176.52 53.93C176 53.93 175.62 53.8 175.36 53.41C175.1 53.15 175.1 52.76 175.1 52.37C175.1 52.24 175.1 52.1 175.1 51.97L176.13 45.07C176.39 43.64 177.04 42.73 178.33 41.94L180.26 40.9L179.75 44.94Z" fill="#2D2D2D" fill-opacity="1.000000" fill-rule="nonzero"/>
		<path id="Vector" d="M180.52 34.65L181.43 28.79C181.56 28 181.94 27.35 182.59 27.09L182.72 26.57C182.85 25.92 182.72 25.4 182.46 25.14C182.2 24.88 181.81 24.62 181.3 24.62C180.13 24.62 179.49 25.27 179.23 26.44L178.33 32.3L169.93 32.3L172.26 34.52L178.33 34.52L180.52 34.65Z" fill="#2D2D2D" fill-opacity="1.000000" fill-rule="nonzero"/>
		<path id="Vector" d="M157.54 14.33L155.47 12.24C156.76 13.67 157.28 15.63 156.89 18.23L155.47 27.22L146.95 27.22L149.14 29.44L157.67 29.44L159.22 19.28C159.34 17.19 158.7 15.5 157.54 14.33Z" fill="#2D2D2D" fill-opacity="1.000000" fill-rule="nonzero"/>
		<path id="Vector" d="M140.88 53.93C141.14 53.93 141.39 53.93 141.65 53.8L147.21 19.41C147.34 18.49 147.85 17.84 148.63 17.58L148.63 17.19C148.75 16.54 148.63 16.02 148.37 15.63C148.11 15.37 147.59 15.11 147.08 15.11C145.91 15.11 145.14 15.76 145.01 17.06L139.46 51.84C139.33 52.5 139.46 53.02 139.72 53.41C139.85 53.67 140.23 53.93 140.88 53.93Z" fill="#2D2D2D" fill-opacity="1.000000" fill-rule="nonzero"/>
		<path id="Vector" d="M151.6 51.06C150.69 56.79 146.56 59.4 140.36 59.4C136.75 59.4 134.16 58.62 132.49 57.19L134.68 59.4C136.23 60.96 138.94 61.75 142.56 61.75C148.63 61.75 152.89 59.14 153.79 53.41L155.6 41.94L153.4 39.73L151.6 51.06Z" fill="#2D2D2D" fill-opacity="1.000000" fill-rule="nonzero"/>
		<path id="Vector" d="M61.85 26.57L57.85 52.11C57.59 53.28 56.94 53.93 55.78 53.93C55.26 53.93 54.88 53.8 54.62 53.41C54.36 53.02 54.23 52.63 54.36 51.98L58.36 26.44C58.62 25.27 59.27 24.62 60.43 24.62C60.95 24.62 61.33 24.75 61.59 25.14C61.98 25.53 61.98 25.92 61.85 26.57ZM61.2 19.28C54.88 19.28 51 21.75 49.97 27.48L46.22 51.32C45.58 56.66 49.07 59.4 55.13 59.4C61.46 59.4 65.34 57.06 66.24 51.32L69.98 27.74C70.89 22.01 67.53 19.28 61.2 19.28Z" fill="#E30907" fill-opacity="1.000000" fill-rule="nonzero"/>
		<path id="Vector" d="M162.31 59.01L169.93 10.03L161.54 10.03L153.79 59.01L162.31 59.01Z" fill="#E30907" fill-opacity="1.000000" fill-rule="nonzero"/>
		<path id="Vector" d="M89.74 19.54L89.74 19.28C86.77 18.89 83.41 19.54 81.35 22.14L79.8 19.67L74.76 19.67L68.56 59.14L76.96 59.14L81.61 29.83C82.25 25.79 86 26.31 88.58 26.96L89.74 19.54ZM93.36 10.03L85.61 59.01L94 59.01L101.75 10.03L93.36 10.03Z" fill="#E30907" fill-opacity="1.000000" fill-rule="nonzero"/>
		<path id="Vector" d="M114.54 26.57L110.53 52.11C110.27 53.28 109.63 53.93 108.47 53.93C107.95 53.93 107.56 53.8 107.3 53.41C107.05 53.02 106.92 52.63 107.05 51.98L111.05 26.57C111.31 25.4 111.95 24.75 113.12 24.75C113.63 24.75 114.02 24.88 114.28 25.27C114.54 25.53 114.66 26.05 114.54 26.57ZM116.99 10.03L115.31 20.97C114.15 19.8 112.47 19.28 110.27 19.28C105.75 19.28 103.56 21.62 102.91 26.18L98.78 52.63C98.01 57.19 100.46 59.53 104.98 59.53C107.82 59.53 109.89 58.62 111.44 56.66L112.86 59.14L117.89 59.14L125.64 10.16L116.99 10.16L116.99 10.03Z" fill="#E30907" fill-opacity="1.000000" fill-rule="nonzero"/>
		<path id="Vector" d="M205.57 19.15C199.12 19.15 195.37 21.36 194.34 27.35L193.82 29.96C193.18 33.61 193.95 36.73 196.79 39.08L201.7 43.51C202.6 44.29 202.99 45.33 202.86 46.37L201.96 51.98C201.7 53.15 201.05 53.8 199.89 53.8C199.38 53.8 198.99 53.67 198.73 53.28C198.47 52.89 198.34 52.5 198.47 51.84L199.5 44.94L191.5 44.94L190.47 51.06C189.69 56.53 193.31 59.27 199.12 59.27C205.96 59.27 209.45 56.93 210.48 51.19L211.13 47.68C211.77 44.03 211.26 40.51 208.41 38.3L203.25 33.74C202.22 32.95 201.83 32.04 202.09 30.74L202.73 26.44C202.99 25.27 203.64 24.62 204.8 24.62C205.32 24.62 205.7 24.75 205.96 25.14C206.22 25.53 206.35 25.92 206.22 26.57L205.32 32.3L213.58 32.3L214.36 27.74C215.26 22.79 212.81 19.15 205.57 19.15Z" fill="#E30907" fill-opacity="1.000000" fill-rule="nonzero"/>
		<path id="Vector" d="M229.08 19.15C222.62 19.15 218.87 21.36 217.84 27.35L217.32 29.96C216.68 33.61 217.45 36.73 220.29 39.08L225.2 43.51C226.11 44.29 226.49 45.33 226.36 46.37L225.46 51.98C225.2 53.15 224.56 53.8 223.39 53.8C222.88 53.8 222.49 53.67 222.23 53.28C221.97 52.89 221.84 52.5 221.97 51.84L223.01 44.94L215 44.94L213.97 51.06C213.19 56.53 216.81 59.27 222.62 59.27C229.46 59.27 232.95 56.93 233.98 51.19L234.63 47.68C235.27 44.03 234.76 40.51 231.92 38.3L226.75 33.74C225.72 32.95 225.33 32.04 225.59 30.74L226.24 26.44C226.49 25.27 227.14 24.62 228.3 24.62C228.82 24.62 229.21 24.75 229.46 25.14C229.72 25.53 229.85 25.92 229.72 26.57L228.82 32.3L237.08 32.3L237.86 27.74C238.76 22.79 236.31 19.15 229.08 19.15Z" fill="#E30907" fill-opacity="1.000000" fill-rule="nonzero"/>
		<path id="Vector" d="M178.59 52.11C178.33 53.28 177.68 53.93 176.52 53.93C176 53.93 175.62 53.8 175.36 53.41C175.1 53.15 175.1 52.76 175.1 52.37C175.1 52.24 175.1 52.11 175.1 51.98L176.13 45.07C176.39 43.64 177.04 42.73 178.33 41.94L180.26 40.9L178.59 52.11ZM182.07 19.28C175.74 19.28 171.74 21.75 170.71 27.48L169.93 32.43L178.33 32.43L179.23 26.57C179.49 25.4 180.13 24.75 181.3 24.75C181.81 24.75 182.2 24.88 182.46 25.27C182.72 25.66 182.85 26.05 182.72 26.7L181.56 34.26L173.81 38.43C170.19 40.38 168.38 42.86 167.74 46.89L166.83 52.63C166.06 57.19 168.51 59.53 173.03 59.53C175.87 59.53 177.94 58.62 179.49 56.66L180.91 59.14L185.95 59.14L190.85 27.74C191.76 21.88 187.88 19.28 182.07 19.28Z" fill="#E30907" fill-opacity="1.000000" fill-rule="nonzero"/>
		<path id="Vector" d="M147.59 9.64C141.27 9.64 136.88 12.24 135.97 17.97L130.81 50.67C129.9 56.27 133.13 59.4 140.49 59.4C146.56 59.4 150.69 56.8 151.73 51.06L153.66 39.6L145.14 39.6L145.14 39.73L143.2 51.98C143.07 53.28 142.3 53.93 141.14 53.93C140.62 53.93 140.1 53.8 139.85 53.41C139.59 53.02 139.46 52.5 139.59 51.84L145.14 17.06C145.4 15.76 146.04 15.11 147.21 15.11C147.72 15.11 148.24 15.24 148.5 15.63C148.75 16.02 148.88 16.54 148.75 17.19L147.08 27.35L155.6 27.35L157.02 18.36C157.67 12.37 153.92 9.64 147.59 9.64Z" fill="#E30907" fill-opacity="1.000000" fill-rule="nonzero"/>
		<path id="Vector" d="M3.74 65L6.06 65L6.06 6.12L59.65 6.12L60.3 3.77L3.74 3.77L3.74 65Z" fill="#2D2D2D" fill-opacity="1.000000" fill-rule="nonzero"/>
		<path id="Vector" d="M132.23 6.12L90.52 6.12L88.97 15.76L59.65 15.76L57.46 13.54L86.77 13.54L88.32 3.77L132.49 3.77L132.23 6.12Z" fill="#2D2D2D" fill-opacity="1.000000" fill-rule="nonzero"/>
		<path id="Vector" d="M134.68 12.24C138.55 7.68 142.94 6.12 147.98 6.12L176.65 6.12L177.04 3.9L147.59 3.9C142.17 3.9 137 6.38 133.39 10.55L131.19 13.02L132.61 14.59L134.68 12.24Z" fill="#2D2D2D" fill-opacity="1.000000" fill-rule="nonzero"/>
		<path id="Vector" d="M182.07 9.37C181.43 9.37 180.65 9.37 180.01 9.51L181.43 0.13L183.62 2.34L182.59 9.37L182.07 9.37Z" fill="#2D2D2D" fill-opacity="1.000000" fill-rule="nonzero"/>
		<path id="Vector" d="M136.49 2.99C137.26 2.6 138.04 2.21 138.81 1.82L136.88 0L136.49 2.99Z" fill="#2D2D2D" fill-opacity="1.000000" fill-rule="nonzero"/>
		<path id="Vector" d="M65.34 0L62.5 9.64L65.47 9.64L67.66 2.21L65.34 0Z" fill="#2D2D2D" fill-opacity="1.000000" fill-rule="nonzero"/>
		<path id="Vector" d="M129.39 62.27C129.13 62.14 128.87 61.75 128.61 61.49C127.06 59.53 126.55 56.8 126.55 56.8L124.61 54.71C124.61 54.71 125.12 57.58 127.58 60.44C127.97 61.09 128.61 61.75 129.39 62.27Z" fill="#2D2D2D" fill-opacity="1.000000" fill-rule="nonzero"/>
		<path id="Vector" d="M241.99 18.75C241.73 18.49 241.6 18.1 241.34 17.84C238.76 14.72 234.63 13.02 229.08 13.02C224.3 13.02 220.42 14.19 217.45 16.28L216.94 16.93L216.29 16.41C213.71 14.19 210.09 13.15 205.57 13.15C200.8 13.15 196.79 14.33 193.95 16.54L193.31 17.06L192.66 16.54C189.95 14.33 186.46 13.15 181.94 13.15C180.13 13.15 178.33 13.28 176.78 13.67L175.36 13.93L177.55 16.15L178.97 15.89C180.52 15.5 182.33 15.37 184.14 15.37C188.53 15.37 192.14 16.54 194.86 18.75L195.5 19.28L196.15 18.75C198.99 16.54 202.99 15.37 207.77 15.37C212.29 15.37 215.9 16.41 218.49 18.62L219.13 19.15L219.78 18.62C222.62 16.41 226.49 15.37 231.27 15.37C235.27 15.37 238.63 16.28 241.09 17.97C241.6 18.23 241.86 18.62 241.99 18.75Z" fill="#2D2D2D" fill-opacity="1.000000" fill-rule="nonzero"/>
		<path id="Vector" d="M243.67 28.92L239.92 52.63C239.02 58.1 237.73 65 224.94 65L140.36 65C134.16 65 129.9 63.7 127.45 60.57C125.12 57.71 124.48 54.84 124.48 54.84L122.8 65.13L55.13 65.13C48.68 65.13 45.06 63.31 43.25 61.22C43.25 61.22 43.25 61.09 43.13 61.09L41.96 65.13L3.74 65.13L3.74 3.77L60.3 3.77L57.33 13.41L86.64 13.41L88.19 3.77L132.49 3.77L131.19 13.02L133.39 10.42C137 6.12 142.17 3.77 147.59 3.77L177.04 3.77L175.49 13.93L176.91 13.67C178.46 13.28 180.26 13.15 182.07 13.15C186.46 13.15 190.08 14.33 192.79 16.54L193.44 17.06L194.08 16.54C197.05 14.33 200.93 13.15 205.7 13.15C210.22 13.15 213.84 14.2 216.42 16.41L216.94 16.93L217.58 16.41C220.42 14.2 224.43 13.15 229.21 13.15C234.76 13.15 238.76 14.72 241.47 17.97C243.02 19.93 244.7 23.44 243.67 28.92ZM0 68.78L44.67 68.78L45.19 67.22C47.64 68.52 50.87 68.78 55.13 68.78L126.16 68.78L126.8 65C130.03 67.61 134.42 68.78 140.49 68.78L225.07 68.78C241.09 68.78 242.89 58.75 243.8 53.28L247.54 29.57C248.83 22.66 246.51 18.1 244.31 15.5C240.96 11.33 235.79 9.37 229.21 9.24C224.43 9.24 220.42 10.29 217.07 12.11C213.97 10.16 210.22 9.24 205.7 9.24C200.93 9.24 196.79 10.29 193.44 12.24C190.34 10.29 186.59 9.24 182.07 9.24C181.43 9.24 180.65 9.24 180.01 9.37L181.43 0L155.6 0L147.59 0C143.72 0 139.85 1.04 136.49 2.99L136.88 0L85.09 0L83.54 9.64L62.5 9.64L65.34 0L0 0L0 68.78Z" fill="#E30907" fill-opacity="1.000000" fill-rule="nonzero"/>
		<path id="Vector" d="M243.67 28.92L239.92 52.63C239.02 58.1 237.73 65 224.94 65L140.36 65C134.16 65 129.9 63.7 127.45 60.57C125.12 57.71 124.48 54.84 124.48 54.84L122.8 65.13L55.13 65.13C48.68 65.13 45.06 63.31 43.25 61.22C43.25 61.22 43.25 61.09 43.13 61.09L41.96 65.13L3.74 65.13L3.74 3.77L60.3 3.77L57.33 13.41L86.64 13.41L88.19 3.77L132.49 3.77L131.19 13.02L133.39 10.42C137 6.12 142.17 3.77 147.59 3.77L177.04 3.77L175.49 13.93L176.91 13.67C178.46 13.28 180.26 13.15 182.07 13.15C186.46 13.15 190.08 14.33 192.79 16.54L193.44 17.06L194.08 16.54C197.05 14.33 200.93 13.15 205.7 13.15C210.22 13.15 213.84 14.2 216.42 16.41L216.94 16.93L217.58 16.41C220.42 14.2 224.43 13.15 229.21 13.15C234.76 13.15 238.76 14.72 241.47 17.97C243.02 19.93 244.7 23.44 243.67 28.92ZM0 68.78L44.67 68.78L45.19 67.22C47.64 68.52 50.87 68.78 55.13 68.78L126.16 68.78L126.8 65C130.03 67.61 134.42 68.78 140.49 68.78L225.07 68.78C241.09 68.78 242.89 58.75 243.8 53.28L247.54 29.57C248.83 22.66 246.51 18.1 244.31 15.5C240.96 11.33 235.79 9.37 229.21 9.24C224.43 9.24 220.42 10.29 217.07 12.11C213.97 10.16 210.22 9.24 205.7 9.24C200.93 9.24 196.79 10.29 193.44 12.24C190.34 10.29 186.59 9.24 182.07 9.24C181.43 9.24 180.65 9.24 180.01 9.37L181.43 0L155.6 0L147.59 0C143.72 0 139.85 1.04 136.49 2.99L136.88 0L85.09 0L83.54 9.64L62.5 9.64L65.34 0L0 0L0 68.78Z" fill="#E30907" fill-opacity="1.000000" fill-rule="nonzero"/>
		<path id="Vector" d="M247.03 18.49C246.9 18.23 246.64 17.97 246.51 17.84C246.25 17.45 245.86 17.06 245.6 16.8L243.41 14.59C243.54 14.72 243.67 14.85 243.8 15.11C243.8 15.11 243.8 15.24 243.93 15.24C244.06 15.37 244.18 15.63 244.31 15.76C246.51 18.36 248.7 22.92 247.54 29.83L243.8 53.54C242.89 59.01 241.09 69.04 225.07 69.04L140.49 69.04C134.55 69.04 130.16 67.87 126.8 65.26L126.16 69.04L55.13 69.04C51 69.04 47.9 68.65 45.45 67.61L45.19 67.22L44.67 68.78L0 68.78L2.19 71L46.87 71L47.39 69.43C49.84 70.73 53.07 71 57.33 71L128.35 71L129 67.22C132.23 69.82 136.62 71 142.69 71L227.27 71C243.28 71 245.09 60.96 245.99 55.49L249.74 31.78C250.77 25.53 248.96 21.23 247.03 18.49Z" fill="#2D2D2D" fill-opacity="1.000000" fill-rule="nonzero"/>
		<path id="Vector" d="M36.93 58.88L51.78 9.9L43.38 9.9L35.64 34.65L35.12 34.65L35.25 9.9L25.95 9.9L18.59 34.78L18.07 34.78L18.07 9.9L9.81 9.9L9.81 58.88L18.72 58.88L26.98 30.74L27.5 30.74L28.02 58.88L36.93 58.88Z" fill="#E30907" fill-opacity="1.000000" fill-rule="nonzero"/>
		<path id="Vector" d="M18.07 34.78L18.59 34.78L20.4 28.66L20.4 12.11L18.07 9.9L18.07 34.78Z" fill="#2D2D2D" fill-opacity="1.000000" fill-rule="nonzero"/>
		<path id="Vector" d="M35.64 34.65L37.44 29.05L37.44 27.09L37.44 12.11L35.25 9.9L35.12 34.65L35.64 34.65Z" fill="#2D2D2D" fill-opacity="1.000000" fill-rule="nonzero"/>
		<path id="Vector" d="M27.5 30.74L26.98 30.74L18.72 58.88L9.81 58.88L12 61.09L21.04 61.09L27.63 38.43L27.5 30.74Z" fill="#2D2D2D" fill-opacity="1.000000" fill-rule="nonzero"/>
	</g>
</svg>
