<svg width="40.000000" height="40.000000" viewBox="0 0 40 40" fill="none" xmlns="http://www.w3.org/2000/svg" xmlns:xlink="http://www.w3.org/1999/xlink">
	<desc>
			Created with Pixso.
	</desc>
	<defs>
		<clipPath id="clip753_598">
			<rect id="telegram_icon_130816 2" rx="0.000000" width="39.000000" height="39.000000" transform="translate(0.500000 0.500000)" fill="white" fill-opacity="0"/>
		</clipPath>
	</defs>
	<rect id="telegram_icon_130816 2" rx="0.000000" width="39.000000" height="39.000000" transform="translate(0.500000 0.500000)" fill="#FFFFFF" fill-opacity="0"/>
	<g clip-path="url(#clip753_598)">
		<path id="Vector" d="M6 0L34 0C37.31 0 40 2.68 40 6L40 34C40 37.31 37.31 40 34 40L6 40C2.68 40 0 37.31 0 34L0 6C0 2.68 2.68 0 6 0Z" fill="#37AEE2" fill-opacity="1.000000" fill-rule="evenodd"/>
		<path id="Vector" d="M15.54 31.56C14.68 31.56 14.76 31.25 14.53 30.46L12.03 22.26L31.17 11.01L15.54 31.56Z" fill="#C8DAEA" fill-opacity="1.000000" fill-rule="nonzero"/>
		<path id="Vector" d="M15.54 31.56C16.09 31.56 16.4 31.25 16.79 30.93L20.31 27.57L15.93 24.92L15.54 31.56Z" fill="#A9C9DD" fill-opacity="1.000000" fill-rule="nonzero"/>
		<path id="Vector" d="M15.93 24.92L26.48 32.65C27.57 33.35 28.51 32.96 28.82 31.56L33.12 11.4C33.51 9.68 32.42 8.9 31.25 9.45L6.17 19.14C4.53 19.76 4.53 20.78 5.85 21.17L12.34 23.2L27.18 13.75C27.89 13.35 28.51 13.51 28.04 14.06L15.93 24.92Z" fill="#F6FBFE" fill-opacity="1.000000" fill-rule="nonzero"/>
	</g>
</svg>
